<svg xmlns="http://www.w3.org/2000/svg" viewBox="0 0 411.79 463.34"><defs><style>    @keyframes sway {
      0% {
        transform: rotate(-1deg);
      }

      50% {
        transform: rotate(1deg);
      }

      100% {
        transform: rotate(-1deg);
      }
    }

    @keyframes sway2 {
      0% {
        transform: rotate(-2deg);
      }

      50% {
        transform: rotate(2deg);
      }

      100% {
        transform: rotate(-2deg);
      }
    }

    @keyframes line {
      0% {
        d: path('M206.85 129.2 Q203 150 206.85 180 T 206.85 228');
      }

      50% {
        d: path('M206.85 129.2 Q210.7 150 206.85 180 T 206.85 228');
      }

      100% {
        d: path('M206.85 129.2 Q203 150 206.85 180 T 206.85 228');
      }
    }

    #bkg {
      animation: sway2 1s 100ms ease infinite;
      transform-origin: center;
    }

    #needle-crack path {
      animation: line 1s ease infinite;
    }

    #flower {
      animation: sway 1s ease infinite;
      transform-origin: 50%;
    }

    #left,
    #right {
      transform: rotate(0);
      transform: rotate(3deg);
      animation: sway 1s ease infinite;
    }

    #left {
      transform-origin: 75% center;
    }

    #right {
      transform-origin: 25% center;
    }.cls-1,.cls-19,.cls-20,.cls-23{fill:none;}.cls-2{fill:#c3996c;}.cls-3{fill:#c38d6b;}.cls-4{fill:#c3aa6d;}.cls-5{fill:#a97c50;}.cls-6{fill:#8b5e3c;}.cls-7{fill:#754c29;}.cls-8{fill:#726658;}.cls-9{fill:#c2b59b;}.cls-10{fill:#3c2415;}.cls-11{fill:#594a42;}.cls-12,.cls-13{fill:#8dc63f;stroke:#006838;}.cls-12,.cls-13,.cls-19,.cls-20,.cls-23{stroke-miterlimit:10;}.cls-12{stroke-width:1.95px;}.cls-13{stroke-width:1.86px;}.cls-14{fill:#df80b4;}.cls-15{fill:#d34a9a;}.cls-16{fill:#06a64f;}.cls-17{fill:#3db54a;}.cls-18{fill:#006838;}.cls-19{stroke:#046938;}.cls-19,.cls-20,.cls-23{stroke-linecap:round;stroke-width:2px;}.cls-20,.cls-23{stroke:#8fc640;}.cls-20{stroke-dasharray:8.04 8.04;}.cls-21{fill:#019547;}.cls-22{fill:#8fc640;}.cls-23{stroke-dasharray:8;}</style></defs><g id="bounds"><rect class="cls-1" width="411.79" height="463.34"/></g><g id="pot"><path class="cls-2" d="M53,290.53C53,277,70.51,266,92.07,266a53.75,53.75,0,0,1,25.32,5.88,106.58,106.58,0,0,1,22.51-2.33c17.93,0,34.22,4.2,46.65,11.2a98.08,98.08,0,0,1,33.52-5.51,96.51,96.51,0,0,1,37.74,7.19,72.5,72.5,0,0,1,24.26-3.92,76.47,76.47,0,0,1,13.13,1.12c7-6.07,18.52-10.08,31.42-10.08,21.56,0,39,11,39,24.54,0,12.79-15.47,23.24-35.17,24.46-5.86,13.35-25.2,23.15-48.29,23.15a75.38,75.38,0,0,1-24.26-3.92,96.57,96.57,0,0,1-37.74,7.18,101.83,101.83,0,0,1-26.14-3.26c-16.62,4.51-40.27,1.42-62.06,1.83C54.64,344.94,70,337.94,70,313.58a23.83,23.83,0,0,1,.11-2.8C59.72,306.39,53,298.93,53,290.53Z"/><path class="cls-3" d="M85.38,340.87c9-.15,43.23,1.74,50.84,1.74,17.94,0,69.8,1.35,81.4,1.51,13.13-.16,53.67,2.51,62,2.67,4.46,0,32.2-2.4,45.09-2.4,16.69,0,38.49-5,38.49-10.11,0-22.49-14.68-32-36.25-32-12.89,0-25.26,1.22-32.29,11.31-4.34-1.25-13.47-1.15-17.93-1.15-8.32-.16-16.8,1.49-21.37,12-4.55-12-24-17.24-37.1-17.09-11.6-.15-25.84,3.68-34.16,14.3A67.84,67.84,0,0,0,137.44,303a66.54,66.54,0,0,0-22.51,3.87c-7.5-6.51-16.29-9.92-25.32-9.77-21.57,0-38.79,13.79-38.79,36.28C50.82,338.45,68.69,340.87,85.38,340.87Z"/><path class="cls-4" d="M73.62,315.93a21.94,21.94,0,0,1,.12-2.8c-1.18-.49-2.3-1-3.38-1.61.09,7,2.76,13.62,7.43,19.49A30.16,30.16,0,0,1,73.62,315.93Z"/><path class="cls-4" d="M56.73,292.88c0-13.53,17.36-24.55,38.79-24.55,9-.09,20.69,2,28.14,5.88,7.34-1.58,11.82-2.33,19.39-2.33,17.82,0,27.68,10.74,40,17.74,10.49-3.74,28.12-12.14,39.65-12.05,13.05-.09,31.92,3.91,43.45,8.77,7.57-2.62,9.9-5.59,18.17-5.5A75.63,75.63,0,0,1,297.39,282c7-6.07,18.4-10.08,31.21-10.08,14.5,0,27.12,5,33.78,12.49-4.9-10-19.63-17.28-37.06-17.28-12.81,0-24.23,4-31.22,10.08a75.43,75.43,0,0,0-13-1.12A72.13,72.13,0,0,0,257,280a95.59,95.59,0,0,0-37.51-7.19,97.17,97.17,0,0,0-33.31,5.51c-12.35-7-28.54-11.2-46.36-11.2a105.92,105.92,0,0,0-22.37,2.33,53.14,53.14,0,0,0-25.16-5.88c-21.43,0-38.79,11-38.79,24.55a18,18,0,0,0,5,12.08A16.47,16.47,0,0,1,56.73,292.88Z"/><path class="cls-5" d="M114.54,327.9c0,3-.45,5.77-3,8.34s-4.22,5.85-8.34,7.6a66.38,66.38,0,0,1-13.49,3.71c-4.35.77-9.56-2.39-14.46-2.39S65,348.73,60.62,348c-4.75-.84-10.33-1.82-14.06-3.4-4.13-1.74-5.4-5.82-7.8-8.23-2.55-2.58-5-5.39-5-8.43s1.94-6.07,4.49-8.65c2.4-2.41,4.15-6.31,8.28-8.06,3.73-1.58,10-1,14.77-1.83a80.84,80.84,0,0,1,14-1.08c4.9,0,10.43-1.55,14.78-.78,4.75.83,9.4,2.91,13.13,4.49,4.12,1.75,6.06,5.11,8.46,7.53C114.17,322.09,114.54,324.85,114.54,327.9Z"/><path class="cls-6" d="M86.25,332.27a8.24,8.24,0,0,1,2.49-6.59c2-1.91,3.49-4.62,6.9-6a56.65,56.65,0,0,1,11.16-2.93c3.6-.61,7.91,1.88,12,1.88s8.51-2.82,12.11-2.21c3.93.66,8.55,1.44,11.63,2.69,3.42,1.38,4.47,4.59,6.45,6.5s4.15,4.26,4.15,6.66-1.6,4.8-3.71,6.83-3.44,5-6.85,6.37c-3.09,1.25-8.3.78-12.22,1.44a69.87,69.87,0,0,1-11.56.86c-4.05,0-8.63,1.22-12.23.62a53.63,53.63,0,0,1-10.86-3.56c-3.41-1.37-5-4-7-5.94S86.25,334.68,86.25,332.27Z"/><polygon class="cls-7" points="241.7 330.54 235.58 336.57 226.04 339.44 218.14 346.8 206.87 349.24 195.13 349.67 183.81 346.98 172.22 346.57 161.11 343.88 151.11 338.99 150.17 330.54 155.12 324.8 163.46 320.54 173.32 317.34 183.61 312.98 195.13 310.96 206.08 316.28 216.47 318.59 226.57 320.88 237.26 323.37 241.7 330.54"/><polygon class="cls-8" points="209.94 335.36 214.89 328.17 223.18 324.49 229.6 315.71 239.47 312.45 249.92 311.49 260.29 314.14 270.68 314.15 280.85 316.81 290.22 322.04 291.79 331.73 287.85 338.54 280.77 343.77 272.23 347.84 263.41 353.27 253.51 352.12 243.02 350.36 233.53 348.11 224.3 345.89 214.53 343.44 209.94 335.36"/><polygon class="cls-9" points="70.22 306.09 68.45 308.57 65.74 309.65 63.46 312.67 60.27 313.55 56.98 313.56 53.83 312.24 50.59 311.9 47.5 310.59 44.74 308.36 44.56 304.74 46.01 302.37 48.38 300.68 51.18 299.46 54.1 297.76 57.35 297.07 60.37 299.49 63.26 300.63 66.07 301.75 69.05 302.97 70.22 306.09"/><polygon class="cls-9" points="368.87 304.99 366.11 307.69 362.23 308.56 358.69 311.82 354.17 312.37 349.6 311.86 345.4 309.79 340.95 308.86 336.83 306.8 333.28 303.69 333.48 299.32 335.77 296.7 339.27 295.04 343.3 294.02 347.56 292.44 352.15 292.13 356.04 295.51 359.9 297.34 363.66 299.13 367.63 301.06 368.87 304.99"/><path class="cls-8" d="M381.41,326.77a18.89,18.89,0,0,1-3.73,9.71c-1.79,2.08-5.34,3.6-8.2,5.12a41.61,41.61,0,0,1-8.62,3.1c-2.72.72-6.09-1.94-9.15-1.68-2.84.23-5.81,4.47-8.84,4.27s-6.05-1.77-8.82-2.39c-3-.68-4.49-5.5-7.09-6.59-2.9-1.21-7.83,1.9-10.07.28-2.63-1.91-5.82-4.28-7.3-6.59-1.73-2.69,2.79-7,3-10s-1.69-6,.4-8.47c1.78-2.08,5-2.41,7.83-3.94a35.88,35.88,0,0,1,8-2.74,47.9,47.9,0,0,1,8.41-1.09c2.84-.24,5.41.53,8.44.74s6.21-2.6,9-2c3,.68,6.8-.78,9.39.3,2.9,1.22,6.29,2.58,8.53,4.21,2.63,1.9,4.1,5.88,5.59,8.19C379.89,320,381.61,323.79,381.41,326.77Z"/><path class="cls-10" d="M264.4,330.7a17.3,17.3,0,0,1,4.41-9.41c2-2,6-3.39,9.24-4.81a50.94,50.94,0,0,1,9.65-2.81c3-.63,6.7,2.06,10.11,1.89,3.15-.16,6.57-4.24,9.93-3.95s6.65,1.89,9.71,2.57c3.31.74,4.82,5.51,7.67,6.65,3.18,1.26,8.75-1.66,11.19,0,2.85,1.93,6.33,4.35,7.9,6.65,1.85,2.68-3.29,6.77-3.6,9.69s1.7,6-.68,8.29c-2,2-5.58,2.23-8.8,3.65a44,44,0,0,1-9,2.48,60.08,60.08,0,0,1-9.37.85c-3.15.16-6-.66-9.34-.95s-7,2.39-10,1.7c-3.31-.74-7.56.59-10.4-.54-3.19-1.27-6.91-2.69-9.35-4.34-2.86-1.94-4.38-5.88-6-8.18C265.89,337.43,264.08,333.62,264.4,330.7Z"/><path class="cls-9" d="M279,319.73c4.37,0,4.38-6.79,0-6.79s-4.38,6.79,0,6.79Z"/><path class="cls-11" d="M151.05,345.4h2.46a6.64,6.64,0,0,0,4.53-1.88,6.42,6.42,0,0,0,0-9.06,6.69,6.69,0,0,0-4.53-1.88h-2.46a6.62,6.62,0,0,0-4.53,1.88,6.4,6.4,0,0,0,0,9.06,6.65,6.65,0,0,0,4.53,1.88Z"/><path class="cls-8" d="M109.12,320.83h.78a5,5,0,0,0,3.19-1.31,3.45,3.45,0,0,0,.93-1.45,3.36,3.36,0,0,0,.38-1.74l-.16-1.19a4.54,4.54,0,0,0-1.15-2l-.91-.7a4.56,4.56,0,0,0-2.28-.62h-.78a3.44,3.44,0,0,0-1.73.39A4,4,0,0,0,105,314.6a3.44,3.44,0,0,0-.39,1.73l.16,1.2a4.61,4.61,0,0,0,1.16,2l.91.7a4.42,4.42,0,0,0,2.27.61Z"/></g><g id="text"><path class="cls-12" d="M97.23,331.92l-1.67,1.85a16.47,16.47,0,0,1,.57,2q.23,1,.39,2.16a23.74,23.74,0,0,1,.14,6,24.79,24.79,0,0,1-1.19,5.63,6.43,6.43,0,0,1-.44,1.14c-.18.35-.35.73-.53,1.14L96.61,355l-3.69-1a12.23,12.23,0,0,1-3.08,2.46,18.15,18.15,0,0,1-4,1.67,21.76,21.76,0,0,1-4.27.79c-.29.06-.57.1-.83.14s-.52,0-.75,0l-.88,2.64-1.67-2.29h-.09l-1.49.18a7.56,7.56,0,0,0-1.41.26A2.38,2.38,0,0,0,73,361.1a7,7,0,0,0-.48,2.55v1.8c0,.68,0,1.39.09,2.16s0,1.4,0,2.11,0,1.37,0,2l2.46,1.32a.25.25,0,0,1,.08.17c0,.06,0,.09-.08.09l-2.64,1.32q-.44,3.08-1.89,4.26a7.5,7.5,0,0,1-3.56,1.54,17.26,17.26,0,0,1-2.9.26c-.35,0-.69,0-1,0a8.49,8.49,0,0,1-.92-.13,7.44,7.44,0,0,1-4-1.41,4.19,4.19,0,0,1-1.14-1.27,10.08,10.08,0,0,1-.88-2.24l-3.17-.71c0-.06.15-.09.44-.09s.44,0,.44-.08-.16-.09-.48-.09h-.4l2.64-1.41c-.35-3.1-.63-6.2-.83-9.27s-.34-6.2-.4-9.36a.08.08,0,0,1,.09-.09l-2-1.32,2-1.05q-.18-4.58-.18-9.14t.18-9.06l-1.85-2.55,2.2-.08a12.35,12.35,0,0,1,.62-2.47,7.15,7.15,0,0,1,1.84-2.77,10.27,10.27,0,0,1,2.81-1.71,20.32,20.32,0,0,1,7.12-1.67l2.11-2.28,1.5,2q2.8-.09,6.11.09a43.53,43.53,0,0,1,6,.7A24.76,24.76,0,0,1,88.44,325a12.53,12.53,0,0,1,3.87,2.9c.4.47.8,1,1.18,1.49a10,10,0,0,1,1,1.76Zm-38.5,1.14,3.08,2.73.7-2.73Zm5.1,29.36-1.76-2.55-1.85,2.55Zm0-17.14-2.38,2L65,347Zm-.53,28,2.11-1.23-1.58-1.67Zm6.77-20.74.09,3.25,2.19-2.9Zm1.23-22.07,3.08.27L72,327.7Zm6.24,14.16a7.5,7.5,0,0,0,1.49-.4,1.78,1.78,0,0,0,.88-.84,6,6,0,0,0,.53-1.71,3.58,3.58,0,0,0-.09-1.8c-.29-.94-1.2-1.64-2.72-2.11a10.73,10.73,0,0,0-2.24-.48,9.06,9.06,0,0,0-2-.05,1.46,1.46,0,0,0-.92.53,3.78,3.78,0,0,0-.4,1.05,13.44,13.44,0,0,0-.09,1.67v1.85a11.75,11.75,0,0,0,.22,1.36,1.47,1.47,0,0,0,.92.93,10.78,10.78,0,0,0,2.11.17A13.82,13.82,0,0,0,77.54,344.67Zm4.92,9.58-.35-4-2.46,1Zm5-25.41-3.78,1.59,2.55,1.32Zm3.61,16.79-3.26-2-.08,2.46Z"/><path class="cls-12" d="M146.88,331.83l-2,1.67H145a21.35,21.35,0,0,1,.57,2.11c.14.71.27,1.41.39,2.11a26.15,26.15,0,0,1,.18,6.07,21.12,21.12,0,0,1-1.23,5.62,7.3,7.3,0,0,1-.44,1.14l-.53,1.06,2,3.34c.12,0,.12.06,0,.17h-.09l-3.6-1.05a5.85,5.85,0,0,0-2.24,2.81,5.18,5.18,0,0,0,0,2,8.79,8.79,0,0,0,.43,1.53,17.33,17.33,0,0,0,1,1.89,7.67,7.67,0,0,0,.62,1.06c.35.7.74,1.46,1.18,2.28s.84,1.58,1.19,2.29a17.51,17.51,0,0,1,1,2.77,13.1,13.1,0,0,1,.4,2.24,6.4,6.4,0,0,1-1.41,4.13,9.21,9.21,0,0,1-2,1.76,11.2,11.2,0,0,1-2.41,1.23,9.82,9.82,0,0,1-3.08.35,17.37,17.37,0,0,1-1.85-.18,3.81,3.81,0,0,1-1.54-.57,6.5,6.5,0,0,1-1.18-1.1c-.29-.41-.63-.95-1-1.62s-.84-1.6-1.36-2.77q-.36-.79-.75-1.71c-.26-.62-.54-1.25-.84-1.9l-1.1-2.55c-.38-.87-.74-1.72-1.09-2.54-.47-1-.94-1.92-1.41-2.77s-.94-1.33-1.41-1.45a1,1,0,0,0-.7.35,1.16,1.16,0,0,0-.44.7c-.06.3-.12.68-.17,1.15s0,1.21,0,1.88,0,1.37,0,2.07.09,1.49.09,2.2v2l2.46,1.41c.06,0,.09,0,.09.08a.26.26,0,0,1-.09.18L122,374.46q-.45,3.26-1.81,4.4a7.15,7.15,0,0,1-3.56,1.49,14,14,0,0,1-2.81.26c-.35,0-.7,0-1,0a8.17,8.17,0,0,1-1-.13,7.17,7.17,0,0,1-3.87-1.5,6.56,6.56,0,0,1-1-1.14,6.91,6.91,0,0,1-1-2.28l-1.93-.79a.16.16,0,0,1-.18-.18l.09-.09,1.49-1.23q-.52-4.65-.79-9.36t-.35-9.45v-.09l-1.85-1.23,1.85-1.14q-.18-4.48-.13-9t.22-9.14l-1.76-2.55,2-.09a14.56,14.56,0,0,1,.62-2.46,7.08,7.08,0,0,1,1.84-2.77,10,10,0,0,1,2.82-1.71,20.88,20.88,0,0,1,7-1.59l1.58-1.67,1.93,1.32c1.94-.06,4,0,6.11.13a49.63,49.63,0,0,1,5.93.75,21.26,21.26,0,0,1,5.28,1.71,12.24,12.24,0,0,1,3.78,3,10,10,0,0,1,1.23,1.49,13.9,13.9,0,0,1,1,1.76ZM108.47,333l2.9,2.63.79-2.63Zm4.22,27.68-.71-2.81-2.9,2.11Zm.35-15.38-1.23-1.58-2.29,2Zm1,28.22,2.19-2.82-3.07.35Zm3.34-22,.08,3.43,2.29-3Zm3.42-21.09,3.17.26-2.46-3.08Zm9,9.4a3.86,3.86,0,0,0-2.73-2.2,15.08,15.08,0,0,0-2.15-.39,8.94,8.94,0,0,0-1.89-.05,1.49,1.49,0,0,0-1.32,1.59,6.81,6.81,0,0,0-.17,1.67,15.46,15.46,0,0,0,.09,1.75,4.89,4.89,0,0,0,.17,1.5,1.35,1.35,0,0,0,.88.79,6.08,6.08,0,0,0,2.11.22,15.46,15.46,0,0,0,2.28-.22,9.84,9.84,0,0,0,1.46-.35,1.65,1.65,0,0,0,.83-.79,6.56,6.56,0,0,0,.53-1.67A4,4,0,0,0,129.74,339.83Zm.18,27.42,3.25-1.75-1.67-2.11Zm1.31-13.88,2.9,2.9-.44-3.87Zm1.76-23,2.64,1.41,1.14-3.08ZM137,346l3.25-.43-3.17-2Zm4.57,25.32-2.73-1.06.35,1.85Z"/><path class="cls-12" d="M176,343.26l-2,1.76H174q0,5-.09,10.24c-.06,3.48-.17,7-.35,10.59l2.2,2.55v.17a.08.08,0,0,1-.09.09l-2.46.44a19,19,0,0,1-1.32,5.89,7,7,0,0,1-3.08,3.73,7.53,7.53,0,0,1-3.34.93h-.08a7.75,7.75,0,0,1-3.17-.71l-1.93,1.67h-.18c-.06,0-.09,0-.09-.08l.09-2.9a7.77,7.77,0,0,1-1.76-2.2,15.8,15.8,0,0,1-1.71-5.41q-.48-3.19-.83-7.07l-.27-2.37-2.28-1.67q-.09,0-.09-.18l.09-.09,2.11-1.67h.08q-.43-5.54-.57-11.07t0-11.08l-2-1.32,2.2-1.23a2.36,2.36,0,0,1,0-.48,2,2,0,0,0,0-.4,16.82,16.82,0,0,1,1.06-4.61,7.38,7.38,0,0,1,1.75-2.59,8.19,8.19,0,0,1,2.46-1.54,10.4,10.4,0,0,1,3.43-.66,5.62,5.62,0,0,1,1.14-.05c.36,0,.74.08,1.15.14l1.84-1.32.79,1.84a6.94,6.94,0,0,1,2.9,1.67,6.79,6.79,0,0,1,1.63,4q.31,2.55.4,7.38c.05,1,.08,2.07.08,3.21v3.56Zm-18.45,7.91,2.81,1.23.35-2.29Zm1.4-21.36,2.29,3.17,1.49-2Zm2.38,43.33,1.93-1.58-1.93-1.05Zm5.88-34.36.71,2.1,2.9-1.23Zm3.34,24.61-2-1.94-.7,1.32Z"/><path class="cls-12" d="M219.42,361.89a5,5,0,0,1,3.42,3.25,9.65,9.65,0,0,1,.66,3.83,8.92,8.92,0,0,1-.92,3.82,12.9,12.9,0,0,1-2.11,2.82l.26,3.77c0,.06,0,.09,0,.09s0,0,0,.09h-.09l-.09-.09-2.55-1.93a15.21,15.21,0,0,1-4.13,1.58,15.92,15.92,0,0,1-3.16.57c-1.12.09-2.26.13-3.43.13a38.87,38.87,0,0,1-4.79-.3,25,25,0,0,1-4.53-1,20.22,20.22,0,0,1-4-1.76l-3.52,1.49a.08.08,0,0,1-.09-.09s-.08,0-.08-.17l1.4-2.9a21.91,21.91,0,0,1-6.32-9.41l-3.78.18c-.06,0-.09,0-.09-.05s0,0-.09,0,0-.18.09-.18l3-2.46a43.62,43.62,0,0,1-1.81-8.22,46.78,46.78,0,0,1-.22-8.3v-.09l-1.49-1.23,1.85-1a27.22,27.22,0,0,1,4.48-12.75l-2-3.08,3.6,1a21.32,21.32,0,0,1,4.48-3.87,19.42,19.42,0,0,1,5.45-2.28l.36-2.29,1.31,1.94a24.86,24.86,0,0,1,12.75.52l2.2-2.1v3a8.32,8.32,0,0,1,2.81,2,10,10,0,0,1,1.76,2.95l3,1.14-2.46,1.14a5.36,5.36,0,0,0,.05.7,6.48,6.48,0,0,1,0,.8,8.94,8.94,0,0,1-.57,2.72,3.16,3.16,0,0,1-2.24,1.76,8.09,8.09,0,0,1-2.51.35c-1,0-2,.06-3.12.17l-.08,3.17-2.47-2.9a7.16,7.16,0,0,1-1,.26,7.26,7.26,0,0,0-1,.27A10.36,10.36,0,0,0,203,341.5a12.62,12.62,0,0,0-2.85,4.57,4.88,4.88,0,0,0-.27.62,6,6,0,0,0-.17.7l2.11,1.67h-2.29a12,12,0,0,0-.09,5.19,13,13,0,0,0,2.29,4.66l3.08-.8H205v.18l-1.14,2.64a9.1,9.1,0,0,0,4.57,1.84,12.06,12.06,0,0,0,3.12,0c1-.15,2-.31,3-.49.29-.05.57-.1.84-.13s.54-.07.83-.13l.88-2.64c.06,0,.09,0,.09,0s0,0,.09,0l.08.08Zm-32.79-14.24,3.87,1.94-.18-2.55Zm1.23-10.37,2.46,2.2,1.5-1.76Zm6.68,24.44-1.76-1.85-1.93,2.55Zm2-31.65h2.55l-2.55-4Zm2.38,39.29-2.11.27v2.2ZM200,336.58l-1.14,1.93,3.6,1.5Zm5.36-9,1.5.88V325Zm.88,45.71,1.85,3.34.88-3.43Zm5.54-5.89-1.14,2.72,2-.35Zm-.88-35.86,2.73,3.51-.36-4.13Z"/><path class="cls-12" d="M268.41,341.68c-.65.82-1.28,1.68-1.89,2.59s-1.2,1.8-1.76,2.68a28.46,28.46,0,0,0-1.45,2.55,13,13,0,0,0-.88,2.11,3.42,3.42,0,0,0-.13,1.93,5.12,5.12,0,0,0,.83,1.76l3.08-1.05-1.85,2.81.09-.09a1,1,0,0,1,.35.44c1,1.17,2,2.54,3.12,4.09l2.86,4.08q1.41,2,2.5,3.87a7,7,0,0,1,1.1,3.61,5.79,5.79,0,0,1-.83,3.25,6.94,6.94,0,0,1-2.68,2.55,9.13,9.13,0,0,1-4.4,1.14,6.69,6.69,0,0,1-3.07-.62,9.22,9.22,0,0,1-3.52-2.11l-2.9,1.24-.09.08-.09-.08v-.18l1.24-2.81-.8-1.06q-1.31-1.57-2.72-3.43t-2.64-3.6l-.17-.26c-.65-.94-1.22-1.75-1.72-2.42a3.75,3.75,0,0,0-1.18-1.19h-.18c-.18.12-.29.52-.35,1.19s-.09,1.39-.09,2.15v3.69a15.52,15.52,0,0,1-.09,1.76l2.55,1.76a.09.09,0,0,1,0,.18l-2.72,1v.36a7.06,7.06,0,0,1-.93,3,4.12,4.12,0,0,1-2.06,1.5,12.11,12.11,0,0,1-3.78.52,16.2,16.2,0,0,1-3.69-.44,11.06,11.06,0,0,1-3.17-1.58,6.11,6.11,0,0,1-2-2.63,14.38,14.38,0,0,1-.92-4.4c-.15-1.81-.28-4.51-.4-8.08L228.5,362c-.12,0-.17,0-.17-.09s0-.08,0-.08,0,0,0-.09l2.47-1.5c-.06-3.86-.09-7.82-.09-11.86V336.05c.06-1.05.09-2,.09-2.72s0-1.44.08-2h.09l-2-2,2.46-1a11.41,11.41,0,0,1,.57-1.94,7.74,7.74,0,0,1,.84-1.4,8.47,8.47,0,0,1,2.37-2.07,8.14,8.14,0,0,1,3.43-1,16,16,0,0,1,4.17.22,9.3,9.3,0,0,1,3.56,1.36.7.7,0,0,0,.4.22.81.81,0,0,1,.39.22l3.34-.26-2.19,2.64a16.29,16.29,0,0,1,.26,3.07v2.86c0,1,0,2.05,0,3.08s.08,2,.14,2.81a12.82,12.82,0,0,0,.26,2.06c.29,1,.75,1.13,1.36.4s1.36-1.74,2.24-3a35.09,35.09,0,0,1,2.73-4.4l-1.76-3.69,3.34,1.14c.29-.46.59-.92.88-1.36s.58-.86.88-1.27c2.17-2.93,4.33-4.43,6.5-4.49a8.1,8.1,0,0,1,3.87.84,10.24,10.24,0,0,1,3.16,2.24,6.15,6.15,0,0,1,1.41,6.59c-.12.3-.25.6-.4.93l-.48,1.09,1,2.47-2.55.17c-.41.59-.85,1.23-1.32,1.93S268.93,341,268.41,341.68Zm-33.84-13.89,2.81,2.81.88-2.11Zm3.78,15.82-3.26,1.76,4,.88Zm1.14,13.62-4.22,1.41,3.95,1.06Zm1,15.83-1.94-1.32-.26,3.07Zm2-39.12.88,2.38,2.19-2.38Zm4.22,23.12,1.93,3.08.61-3.87Zm1.31-10.2,2.9.71.36-4.05Zm9,9.93,1.67,2,1.76-2.64Zm2.55-24.08,1.14,2.9,1.85-1.58Zm3.51,14-2.1-2.46-1.24,1.84Zm2.11,25.84-1.75-.35.17,2.81Zm1.76-39.47,3.26.36-2-2.29Z"/><path class="cls-12" d="M320.17,363.56a7.39,7.39,0,0,1,1.41,1.23,8.58,8.58,0,0,1,1.71,3.52,9.28,9.28,0,0,1,0,4.13,9.54,9.54,0,0,1-3.78,6.07,8.36,8.36,0,0,1-3,1.36,29,29,0,0,1-3.48.57c-1.17.12-2.37.2-3.6.26s-2.58.09-4,.09c-.94,0-1.91,0-2.9,0s-2.08-.08-3.26-.14a35.64,35.64,0,0,1-7.11-1.27,11.59,11.59,0,0,1-4.31-2.33,9.59,9.59,0,0,1-2.64-4.31l-3.25.09a.08.08,0,0,1-.09-.09c-.12-.11-.12-.17,0-.17l2.55-2.81c-.12-.65-.22-1.31-.31-2s-.19-1.42-.31-2.24a60.29,60.29,0,0,1-.39-6.51c0-2.46-.08-5.12-.13-8v-.08l-2.46-1.59,2.28-1.67c-.06-1.11-.07-2.18,0-3.2s0-2,0-2.95c0-1.64,0-3.08.09-4.31s.13-2.3.22-3.2.19-1.72.31-2.42a17.56,17.56,0,0,1,.44-2l-3-1.15,3.43-.79a13.38,13.38,0,0,1,.87-2.41,4.73,4.73,0,0,1,1.5-1.81,7.63,7.63,0,0,1,3.25-1.45,15.31,15.31,0,0,1,3.78-.3,12,12,0,0,1,3.52.66,4.78,4.78,0,0,1,2.54,2.24,9.7,9.7,0,0,1,1.23,4.17,62.15,62.15,0,0,1,.27,6.29l3.69,1.75-3.6,1q-.09,3.43-.09,6.9t-.09,7l2.9,1.76-2.81.52.09.09a33.33,33.33,0,0,0,.13,3.47,4.49,4.49,0,0,0,.57,1.89,2.61,2.61,0,0,0,1.32,1.28,9.6,9.6,0,0,0,2.81.57h1.19a10.7,10.7,0,0,1,1.36.09c.88,0,1.82,0,2.81.09s2,.14,3,.26c.29.06.57.1.84.13s.54.08.83.13l3.43-1.84h.18a.29.29,0,0,1,.08.17Zm-34.1-32.43,3.87,1.49.17-2.63Zm5.54,12.92-4.22.62,4.31,1.67Zm.61,23.12-1.4-2.11-3,2.46Zm2.9-28.48,3.25.44-2-2.38Zm4,20.13-3.87-.62.44,3Zm2.55,14.94.52,3.87,1.94-3.34Zm10-6.42-1.23-3-1.67,2.9Zm6.33,4.49-1.59,1.93,3,1.32Z"/><path class="cls-12" d="M359.39,324.1a7.61,7.61,0,0,1,1.41,2.06,13.61,13.61,0,0,1,1,3.74l1.49,1.32L361.94,333a55.21,55.21,0,0,1-.35,6.06,25.81,25.81,0,0,1-1.32,6c-.11.35-.25.79-.39,1.32a7.54,7.54,0,0,1-.49,1.32l1.76,3.69-3.34-1.15a16.05,16.05,0,0,1-3.34,3.39,18.94,18.94,0,0,1-4.31,2.33c.12,1.23.22,2.43.31,3.6s.16,2.4.22,3.69l3.08,1.5L351,366.64v.09a36.77,36.77,0,0,1-.49,7.6,10.43,10.43,0,0,1-1.89,4.44,6.65,6.65,0,0,1-2.68,2.07,8,8,0,0,1-2.94.57,7.2,7.2,0,0,1-3.08-.62c-2.23-.88-3.95-2.87-5.18-6a10.2,10.2,0,0,1-.66-2.33c-.15-.85-.28-2-.4-3.39V369l-3.07-1.4,3.16-1.85c.06-1.52.11-3,.17-4.52s.15-3,.27-4.53a11.81,11.81,0,0,1-3.12-1.23,21.43,21.43,0,0,1-2.68-1.85l-2.82,1.06.71-3.43a30.31,30.31,0,0,1-4.66-9.76,29.6,29.6,0,0,1-.7-10.81l-1.5-2.2,2.2-1.14a6.89,6.89,0,0,1,2.2-3.6,6,6,0,0,1,3.07-1.23,8.86,8.86,0,0,1,3.74.26,10,10,0,0,1,3.21,1.58,7.83,7.83,0,0,1,2.11,2.64,26.48,26.48,0,0,1,1.49,3.87.59.59,0,0,0,0,.26.41.41,0,0,1,.05.18l3.25.44-2.55,2.11c.29,1.17.6,2.28.92,3.34a10.76,10.76,0,0,0,1.1,2.54q.79,1.5,1.59,1.41c.52-.06,1-.47,1.4-1.23a8.86,8.86,0,0,0,1.14-2.86c.3-1.2.62-2.56,1-4.08a15.63,15.63,0,0,1,.44-1.67c.18-.53.35-1.06.53-1.58l-2.2-2.11,3.25-.53a10.9,10.9,0,0,1,1.5-2.38,6.12,6.12,0,0,1,2.94-2,10.7,10.7,0,0,1,3.12-.52,7.56,7.56,0,0,1,2.51.52A6.69,6.69,0,0,1,359.39,324.1ZM328.54,339l-4-.17,2.55,3Zm1.15-7.64-1.5-4-1.41,3.43Zm5.44,13.53,2.73,1.58v-3.69Zm2,8.7,1.31,4,1.15-3.43Zm3,23,2-2.28-2-1.15ZM342,364.88l3,2.29-.18-4ZM351.75,353l-1.59-2.82L348,351.79Zm2.37-14.68-3.25,2,2.46,1.85Zm1.58-6.86-.44-3.78-2.9,3.26Z"/><path class="cls-13" d="M122.15,390.22a7.3,7.3,0,0,1,3,5.43,12,12,0,0,1-.26,4.32,6.2,6.2,0,0,1-2,3.42,5,5,0,0,1-2.14,1,17.79,17.79,0,0,1-2.49.36l-.71,3.65-2.5-3.47a4.18,4.18,0,0,0-3.65,2.49,13.17,13.17,0,0,0-.58,3.52c-.09,1.51-.07,3.76,0,6.73.12,1.48.2,3.13.23,4.94s.1,3.66.22,5.56l4.19,1.79-3.92,1.51h.09c.06,1.36.09,2.52.09,3.47v2.59a20.34,20.34,0,0,1-.67,5.07,5.36,5.36,0,0,1-1.38,2.14,8.19,8.19,0,0,1-1.52,1.16,7.11,7.11,0,0,1-2.13.8,3.37,3.37,0,0,1-1.07.17h-1a11.88,11.88,0,0,1-3.65-.53,5.8,5.8,0,0,1-4.28-4.27,6.22,6.22,0,0,1-.26-1,5.13,5.13,0,0,1-.09-.93L92,438.39l-.08-.08c0-.06,0-.09,0-.09s0,0,0-.09l3.48-1.34q.18-5.25.22-10.6c0-3.56,0-7.18,0-10.86L92,414.71l3.65-2.14v-.27a12.06,12.06,0,0,0-.89-4.36,3.53,3.53,0,0,0-3-2.05c-.6-.06-1.31-.15-2.14-.27s-2-.15-3-.26a6.49,6.49,0,0,1-2.72-.9,3.59,3.59,0,0,1-1.51-1.55,8.5,8.5,0,0,1-.8-2.45l-2-.8,1.6-2.05a14.17,14.17,0,0,1,.27-2.72,6.57,6.57,0,0,1,1-2.45A7,7,0,0,1,85.32,390,18.59,18.59,0,0,1,91,388.61c.78-.06,1.67-.15,2.68-.26l1.78-2.14,1.16,2q3.1-.18,6.32-.18c2.14,0,4.15,0,6.06.09,2.25,0,4.23.06,5.92.17a31.07,31.07,0,0,1,4.5.63L122,387.1Zm-32.33,9.7-.36-3-3,1.87Zm8.28,29.75,4.19.62-1.34-3Zm1.51-36,3.21,1L101.75,391Zm3.83,9.7-3.11,1.43,3.11,2.32Zm4.1,37.77-2.14-3.39-1.69,2.58Zm-1.6-21,2.94-1-2.68-2.32Zm12.73-24.58-3.47.18,1.34,2.76Z"/><path class="cls-13" d="M175.22,425.3l-2,.36a42,42,0,0,1-3.57,10.6,18.71,18.71,0,0,1-1.11,1.82l-1.2,1.74,2,3v.09a.08.08,0,0,1-.09.09h-.09l-4.19-.72a21.52,21.52,0,0,1-4.72,3.3,14.3,14.3,0,0,1-3.65,1.2,20.38,20.38,0,0,1-3.56.31,16.79,16.79,0,0,1-3.12-.27,26.53,26.53,0,0,1-5.07-.89,14.38,14.38,0,0,1-5.26-2.76,10.42,10.42,0,0,1-1.69-1.51l-4,.8c-.06,0-.09,0-.09,0s0-.05-.09-.05v-.18l1.79-3.29a33.6,33.6,0,0,1-2.28-3.74,36.14,36.14,0,0,1-1.82-4.1,44.85,44.85,0,0,1-2.14-8.9v-.09l-2.14-2,2-1.61a34.21,34.21,0,0,1,.49-10.37,37.6,37.6,0,0,1,3.61-9.66l-3-2.85,5.08-.36a23.65,23.65,0,0,1,5-5.21,17.28,17.28,0,0,1,6.14-3,21.81,21.81,0,0,1,6.46-.45,19.66,19.66,0,0,1,6.27,1.7l3-2.5-.26,3.83a23.87,23.87,0,0,1,5.74,4.59,22.88,22.88,0,0,1,3.87,6.27L175,401l-2.5,2.23a2.91,2.91,0,0,0,.18.71,39.06,39.06,0,0,1,1.29,7.61,47.65,47.65,0,0,1-.13,8.51c-.06.59-.11,1.17-.13,1.74a11,11,0,0,1-.23,1.64Zm-42.48-15.76,3.92,3.47.36-2.67Zm4.55,15.5-.63-2.05L133.9,425Zm1.78-29.48,1.24,3.65,2.32-1.69Zm5.34,11.93-3.38-1,2.05,2.67Zm-.18,28.77-2.13-.45-.36,2.58Zm2.32-6.15-1.87-2.4-1.25,2.58Zm-1.87-15.23a13,13,0,0,0,0,3.74,13.59,13.59,0,0,0,1,3.48,8.76,8.76,0,0,0,1.74,2.67,4.77,4.77,0,0,0,2.14,1.29,5.12,5.12,0,0,0,2.22.13,6.26,6.26,0,0,0,2.85-1.07,5.58,5.58,0,0,0,2-2.75L152.78,421l4.46-1.25a4.14,4.14,0,0,0,.08-1,15.42,15.42,0,0,0-.22-4.18,11.12,11.12,0,0,0-1.38-3.83,5.77,5.77,0,0,0-2.54-2.32,5.5,5.5,0,0,0-3-.53,4.66,4.66,0,0,0-2.67,1.24,9.24,9.24,0,0,0-2,2.68l2.85,1.95Zm7.92-19,2.67,1.78.18-5.53Zm4.9,9.52-2.85,1.16,2.14,1Zm-.09,37-.09-4.18L155.54,440Zm1.25-12.2,2.4,1.16-.71-2.41Zm3.21-13,3.11-1.87-2.76-.45Zm2.4-12.74,1.25,2.23,2.58-2.23Zm5,19.69L165.69,422l-1.15,2.76Z"/><path class="cls-13" d="M227.05,425.3l-2,.36a42,42,0,0,1-3.57,10.6,18.71,18.71,0,0,1-1.11,1.82l-1.2,1.74,2.05,3v.09a.08.08,0,0,1-.09.09H221l-4.19-.72a21.52,21.52,0,0,1-4.72,3.3,14.3,14.3,0,0,1-3.65,1.2,20.38,20.38,0,0,1-3.56.31,16.79,16.79,0,0,1-3.12-.27,26.53,26.53,0,0,1-5.07-.89,14.31,14.31,0,0,1-5.26-2.76,10.42,10.42,0,0,1-1.69-1.51l-4,.8c-.06,0-.09,0-.09,0s0-.05-.09-.05v-.18l1.78-3.29a35.1,35.1,0,0,1-2.27-3.74,36.14,36.14,0,0,1-1.82-4.1,44.16,44.16,0,0,1-2.14-8.9v-.09l-2.14-2,2-1.61a34.21,34.21,0,0,1,.49-10.37A37.6,37.6,0,0,1,185,398.5l-3-2.85,5.08-.36a23.84,23.84,0,0,1,5-5.21,17.41,17.41,0,0,1,6.15-3,21.81,21.81,0,0,1,6.46-.45,19.59,19.59,0,0,1,6.27,1.7l3-2.5-.26,3.83a23.87,23.87,0,0,1,5.74,4.59,22.64,22.64,0,0,1,3.87,6.27l3.48.45-2.5,2.23a2.91,2.91,0,0,0,.18.71,39.06,39.06,0,0,1,1.29,7.61,47.65,47.65,0,0,1-.13,8.51c-.06.59-.1,1.17-.13,1.74a9.82,9.82,0,0,1-.23,1.64Zm-42.48-15.76,3.92,3.47.36-2.67Zm4.55,15.5-.63-2.05L185.73,425Zm1.78-29.48,1.24,3.65,2.32-1.69Zm5.34,11.93-3.38-1,2,2.67Zm-.18,28.77-2.14-.45-.35,2.58Zm2.32-6.15-1.87-2.4-1.25,2.58Zm-1.87-15.23a13,13,0,0,0,0,3.74,13.59,13.59,0,0,0,1,3.48,8.94,8.94,0,0,0,1.74,2.67,4.77,4.77,0,0,0,2.14,1.29,5.12,5.12,0,0,0,2.22.13,6.26,6.26,0,0,0,2.85-1.07,5.53,5.53,0,0,0,2.05-2.75L204.61,421l4.45-1.25a3.54,3.54,0,0,0,.09-1,15.42,15.42,0,0,0-.22-4.18,11.12,11.12,0,0,0-1.38-3.83,5.77,5.77,0,0,0-2.54-2.32,5.5,5.5,0,0,0-3-.53,4.66,4.66,0,0,0-2.67,1.24,9.07,9.07,0,0,0-2,2.68l2.85,1.95Zm7.92-19,2.68,1.78.17-5.53Zm4.9,9.52-2.85,1.16,2.14,1Zm-.09,37-.09-4.18L207.37,440Zm1.25-12.2,2.4,1.16-.71-2.41Zm3.21-13,3.11-1.87-2.76-.45Zm2.4-12.74,1.25,2.23,2.58-2.23Zm5,19.69L217.53,422l-1.16,2.76Z"/><path class="cls-13" d="M277.79,423.79l-1.87,2.4v.09a17.24,17.24,0,0,1,.27,3q0,5.7-2.58,9.17l2,2.68c.12,0,.12.06,0,.17l-.09.09-3.92-.71a20.67,20.67,0,0,1-8,4.36,29.8,29.8,0,0,1-8.64,1.25,26.51,26.51,0,0,1-2.67-.13c-.9-.09-1.76-.19-2.59-.31a24.81,24.81,0,0,1-7-2.28A48.9,48.9,0,0,1,238,441a16,16,0,0,1-3.52-2.94,8,8,0,0,1-1.65-3.12,5.67,5.67,0,0,1-.13-2.94,19.76,19.76,0,0,1,.84-3v-.08l-1.07-2.32,2.14.27a4.24,4.24,0,0,1,1.61-1.16,9.4,9.4,0,0,1,1.87-.54,6.79,6.79,0,0,1,2.53.14,16.79,16.79,0,0,1,2.54.84c.89.36,1.8.76,2.72,1.21a30.13,30.13,0,0,0,2.89,1.2,17.86,17.86,0,0,0,3.16.62,5.62,5.62,0,0,0,2.72-.26,2.31,2.31,0,0,0,1.38-1.34,2.22,2.22,0,0,0-.13-1.78,4.74,4.74,0,0,0-1.83-1.6c-.86-.48-2-1-3.52-1.7l-5-2.18a26.15,26.15,0,0,1-4.9-2.72,1.49,1.49,0,0,1-.31-.17l-.32-.18-3.74,1.69,1.52-3.74a14.92,14.92,0,0,1-2.76-4.1,15.94,15.94,0,0,1-1.83-8.41,15.41,15.41,0,0,1,3.7-7.79l-1.61-3.92,3.21,2.05c.24-.24.46-.45.67-.63l.76-.62a18.74,18.74,0,0,1,3.69-2.05,25.25,25.25,0,0,1,4.68-1.43,40.09,40.09,0,0,1,5.61-.71,30.3,30.3,0,0,1,6.14.27c.54.12,1.06.22,1.56.31s1,.19,1.56.31l2.32-1.33,1.33,2.4a26.29,26.29,0,0,1,3.83,1.78,9.81,9.81,0,0,1,3.07,2.32,7.84,7.84,0,0,1,1.47,2.76,10.25,10.25,0,0,1,.4,3.21,9.46,9.46,0,0,1-.49,2.94,6.15,6.15,0,0,1-1.33,2.22l.35,4-3.2-2.23a8.43,8.43,0,0,1-3.21-.09c-1.48-.29-3.25-.74-5.3-1.33a39.78,39.78,0,0,0-5.65-1.25,10.49,10.49,0,0,0-4.06.05c-1,.26-1.55.63-1.73,1.11q-.72,1.42,3.2,3.21a42.19,42.19,0,0,0,4.37,1.82q2.58.93,5.34,2.18a36.23,36.23,0,0,1,5.26,3.12,16.76,16.76,0,0,1,4.09,4.1,18.46,18.46,0,0,1,1.61,3ZM241,403.57l-3.83.8,3.21,2.05Zm1.16,31.17-2.4-.62.71,3.74Zm4.72-20.57-2.14-1.69-1,3.38Zm2.23-19.32-2.58-3.48-.09,4.72ZM253,439.37l-2.58-.17L252,442Zm4.36-21.46v-3.38l-3.2,2.94Zm4.1,16.3-2.85.8,2.94,2.67Zm-.09-39.36,3.12.8-.72-3.83Zm2.58,28.32.54,3.11,3.74-2.13ZM267,400.9l3,2.14-.63-3.12Zm5.79,33-2.5-2.05-1.51,2.77Z"/><path class="cls-13" d="M328.13,438.48l.09.18c-.06,0-.09,0-.09,0s0,0-.09,0l-2,.71c-.06.36-.16.88-.31,1.56a10.9,10.9,0,0,1-.67,2.05,6.92,6.92,0,0,1-1.29,2,4.43,4.43,0,0,1-2.27,1.29,10.45,10.45,0,0,1-3,.36,13.6,13.6,0,0,1-3.07-.36,11.47,11.47,0,0,1-2.89-1.07,5.63,5.63,0,0,1-2.67-3.47,5.7,5.7,0,0,1-.14-.76c0-.26-.07-.55-.13-.84-.12-.95-.19-1.95-.22-3s-.08-2.09-.14-3.16v-1.69a12.18,12.18,0,0,0-.09-1.52c-.17-2.49-.56-4-1.15-4.63a2.16,2.16,0,0,0-1.25-.62,5.7,5.7,0,0,0-1.43,0,7.23,7.23,0,0,0-1.06.22,1.5,1.5,0,0,0-.81.85,8.29,8.29,0,0,0-.44,1.83,33.23,33.23,0,0,0-.27,3.33,3,3,0,0,0-.09.72v.8a8.91,8.91,0,0,0-.09,1.29,13.07,13.07,0,0,1-.08,1.38l3.2,1.6c0,.06,0,.09.05.09s0,0,0,.09-.06.09-.18.09l-3.29.89c-.06.42-.15.92-.27,1.51a11.1,11.1,0,0,1-.54,1.83,7.29,7.29,0,0,1-.93,1.74,4,4,0,0,1-1.47,1.24,9,9,0,0,1-2.09.72,14.58,14.58,0,0,1-2.54.31,19.11,19.11,0,0,1-2.63-.09,8.33,8.33,0,0,1-2.36-.58q-2.31-.8-3.83-4.1a10.75,10.75,0,0,1-.67-2.4,40.32,40.32,0,0,1-.31-4.54c-.06-1-.1-2.23-.13-3.65s-.08-3.18-.13-5.26l-1.25-.89a.26.26,0,0,1-.09-.18.08.08,0,0,1,.09-.09l1.33-1q-.17-6.22-.17-12.38t.09-12.29v-.53l-1.7-2.05,2-.71a15.81,15.81,0,0,1,.45-2.36,6.52,6.52,0,0,1,.71-1.65,7,7,0,0,1,1.56-2,5.77,5.77,0,0,1,2.45-1.16,13.27,13.27,0,0,1,3.07-.17,13.65,13.65,0,0,1,3.16.53l2.23-2-.18,3a5,5,0,0,1,1.38,1.78,13.37,13.37,0,0,1,.85,2.76,18.61,18.61,0,0,1,.4,2.41c.09.89.19,1.78.31,2.67l2.76,1-2.58,1.51c0,.42,0,.8,0,1.16s.05.71.05,1.07c.12,1.31.22,2.24.31,2.8a2.8,2.8,0,0,0,.58,1.39,2.47,2.47,0,0,0,2.4,1.15,3.43,3.43,0,0,0,1.56-.44,3.76,3.76,0,0,0,1.38-1.25,5.05,5.05,0,0,0,.67-2.09,26.66,26.66,0,0,0,.13-2.9c.06-1.18.09-2.45.09-3.78a35.13,35.13,0,0,1,.18-3.7,16,16,0,0,1,.49-2.76,5.84,5.84,0,0,1,1-2,7.64,7.64,0,0,1,1.61-1.25l.09-2.85,1.69,2.23a5.14,5.14,0,0,1,1.24-.18,11.94,11.94,0,0,1,3.48.18,14.55,14.55,0,0,1,3.38,1.07,6.3,6.3,0,0,1,2.67,2.76l3.57.27-2.5,2.94a42.78,42.78,0,0,1,.27,5.25q0,3.12.09,8.19a4.32,4.32,0,0,1,.09.85v.85l1.51,1.07L326,413v.09c.05.77.08,1.53.08,2.27s0,1.53.09,2.36q.09,3.93.18,7.75t.09,6.77c-.06.83-.09,1.6-.09,2.32s0,1.39-.09,2Zm-40.52-26.27,4,1.16-.09-2.76Zm4.28,15.05-1.25-2.4-2.58,3.47ZM289,394l1.78,4,1.78-1.87Zm7.66,45.16.44-3-1.69.53Zm2.13-25.56,2.59.8-.18-3.21Zm8.11,4.18,2.85,2.41-.71-3.21ZM311,396.45l2.94,1.07.54-2.23Zm5.88,41.77-2-.18.27,2.49Zm3-10-2-2.76-1.07,1.78Zm-1.16-13,3.47.53-2.93-2.94Zm.45-12.65,1,1.7,2.49-1.7Z"/></g><g id="flower"><path class="cls-14" d="M78,140.37c16.2,14.7,36.6-11.6,36.6-11.6s7.9,36.5,30.3,23.5c24.5-14.2.3-38.4.3-38.4s31.2,10.9,31.7-21.5c.5-32.7-36.4-12.1-36.4-12.1s19.3-29.1-10.7-36.8c-28.7-7.4-22.8,30.9-22.8,30.9s-22.1-28.9-38.3-1.2c-15.4,26.2,22.3,31.2,22.3,31.2S55.08,119.67,78,140.37Z"/><path class="cls-15" d="M141.18,107.07s26.2,9.1,26.6-18c.1-9.5-3.5-13.6-8.2-15,8.9-.8,17.5,2.5,17.3,18.4-.4,28-23.7,23.7-30.1,22A46.36,46.36,0,0,0,141.18,107.07Z"/><path class="cls-15" d="M137.18,78.87s16.1-24.4-8.9-30.9c-24-6.2-19.1,25.9-19.1,25.9a35.84,35.84,0,0,0-2.6-2.9c-.7-9.2-.3-33.5,23.1-27.5,23.1,6,16.9,24.7,12.9,32.9C140.78,77.17,139,78,137.18,78.87Z"/><path class="cls-15" d="M68.68,73.17c7.8-13.3,16.9-13.5,24.3-10.2-5.2-.8-10.9,1.3-15.9,9.9C64.18,94.77,95.78,99,95.78,99a46.28,46.28,0,0,0-8.1,4.7C78.88,101.77,56.18,94.47,68.68,73.17Z"/><path class="cls-15" d="M81.18,110.07c-3.6,5.1-4.5,11.7,3.7,19.2,13.6,12.3,30.6-9.7,30.6-9.7s6.7,30.6,25.4,19.7c10.7-6.2,10.3-14.6,7.5-21.3,5.7,7.4,14.8,23.7-3.6,34.4-22.3,13-30.3-23.5-30.3-23.5s-20.4,26.3-36.6,11.6C63.48,127.27,72.58,116.27,81.18,110.07Z"/></g><g id="bkg"><path class="cls-16" d="M259.67,103.67c-19.92,0-39.23,3.24-53.85,17.11-14.62-13.87-33.9-15.46-53.83-15.46-47.74,0-86.32,36.42-86.32,94.92S105,299,152.78,299c19.92,0,32.6-15,52.23-15s36.23,14.58,56.15,14.58c47.75,0,83.19-39.87,83.19-98.36S307.41,103.67,259.67,103.67Z"/><path class="cls-17" d="M149.49,133.78c19.92,0,42.45,8.15,57.07,22.6,14.62-14.45,37.53-21.66,57.46-21.66,45.84,0,77.66,18.36,80.57,75.91.12-2.39.19-4.8.19-7.22,0-60.91-37.24-101.48-85-101.48-19.92,0-39.35,4.35-54,18.8-14.62-14.45-33.9-16.09-53.83-16.09-47.74,0-85.89,37.86-85.89,98.77,0,2.42.07,4.83.19,7.22C69.21,153.08,103.65,133.78,149.49,133.78Z"/><path class="cls-18" d="M171.35,294.9S166.78,265,201.78,266s38.61,6.32,39,28.33c0,0-26.17-9.95-32.83-10.2C198.4,283.76,198.87,284.06,171.35,294.9Z"/><polyline class="cls-19" points="73.11 281.53 86.11 264.52 86.11 263.37 63.99 270.99"/><polyline class="cls-19" points="48.8 160.63 72.62 159.38 73.59 158.65 53.3 148"/><line class="cls-19" x1="67.76" y1="188.05" x2="45.16" y2="184.18"/><line class="cls-19" x1="69.11" y1="226.63" x2="54.64" y2="230.91"/><polyline class="cls-19" points="346.05 267.58 333.12 251.52 333.03 250.37 353.4 256.45"/><polyline class="cls-19" points="353.4 145 332 145.38 331.07 144.72 348.41 132.71"/><line class="cls-19" x1="340.78" y1="175.2" x2="362.38" y2="169.8"/><line class="cls-19" x1="342.46" y1="211.84" x2="357.72" y2="215.88"/></g><g id="left"><path class="cls-16" d="M205.93,137.67c-8.11-13.89-36.31-23.26-59.15-23.2-30.88.08-82.32,34.93-83,91.2-.65,55.21,38.35,99.64,87,99.64,20.3,0,39.27-6.71,50.73-23.1,13.23-18.9,6.39-44.64-10.14-50.53-12.8-4.56-13.4-24.4-3.33-50C195.11,163.78,215.12,153.43,205.93,137.67Z"/><path class="cls-20" d="M106.41,131.34C95.13,161.64,80.49,225,143,300.53"/><path class="cls-20" d="M146.07,116.44c-11.29,30.31-25.42,98.26,37.06,173.79"/><path id="butt-shadow" class="cls-21" d="M199.63,238.65a27.74,27.74,0,0,1,1,7.94c0,24-27.1,43.4-60.52,43.4-24.2,0-45.06-10.18-54.75-24.89,5.53,19.88,35,38.16,64.32,38.16,23.07,0,47.5-8.9,53.45-24.8C211.58,255.93,203,243.82,199.63,238.65Z"/><path class="cls-18" d="M200.17,239.47c18.42,29.66-19.36,56.32-53.37,58-24.16,1.18-51.32-14.88-61-29.59,5.53,19.88,35,38.16,64.32,38.16,23.07,0,42.42-6.55,54.48-28.65C212.93,262.1,206.87,240.74,200.17,239.47Z"/><path class="cls-18" d="M192,234.32c5.54,2.74,10,7,11.84,13,1.48,5,1.19,10.23.74,15.32-.23,2.59-.53,5.17-.59,7.77a1,1,0,0,0,2,0c.12-5.07,1-10.1,1-15.19-.09-5.59-1.37-11.14-4.88-15.61a26,26,0,0,0-9.05-7c-1.15-.57-2.16,1.15-1,1.72Z"/><path class="cls-22" d="M186.82,236.27a12.76,12.76,0,0,1,7.8,7.6,1,1,0,1,0,2-.4v-.2a15.43,15.43,0,0,0-9.2-9,1,1,0,0,0-1.2.7h0a1,1,0,0,0,.6,1.3Z"/><path class="cls-22" d="M197.82,250.07a1,1,0,1,0-1-1A1,1,0,0,0,197.82,250.07Z"/><line class="cls-19" x1="166.22" y1="163.78" x2="156.82" y2="155.38"/><line class="cls-19" x1="122.12" y1="170.38" x2="114.62" y2="166.08"/><line class="cls-19" x1="120.82" y1="203.18" x2="115.92" y2="212.88"/><line class="cls-19" x1="147.42" y1="270.28" x2="142.22" y2="277.38"/><line class="cls-19" x1="135.02" y1="251.58" x2="123.02" y2="247.28"/><line class="cls-19" x1="96.02" y1="193.88" x2="84.32" y2="187.18"/><line class="cls-19" x1="93.62" y1="155.48" x2="91.12" y2="139.05"/><line class="cls-19" x1="87.19" y1="246.12" x2="69.86" y2="251.94"/><line class="cls-19" x1="84.72" y1="214.28" x2="78.52" y2="214.28"/><line class="cls-19" x1="169.62" y1="113.41" x2="166.32" y2="127.38"/><line class="cls-19" x1="161.52" y1="198.48" x2="161.52" y2="219.38"/><line class="cls-19" x1="124.82" y1="126.78" x2="133.22" y2="141.08"/><line class="cls-19" x1="189.02" y1="172.58" x2="187.12" y2="184.48"/></g><g id="right"><path class="cls-16" d="M209.71,134.32c6.93-6.25,31-19.65,51.27-19.65,48.65,0,83.8,36,83.8,88.74,0,56.26-35.15,102.29-83.8,102.29-20.31,0-37.73-6.67-49.2-22-13.23-17.73-9-44.3,7.51-49.82,10.16-3.4,11-21.25,5.37-41.43C220.47,177.38,188,153.91,209.71,134.32Z"/><path class="cls-20" d="M306.44,130.31c11.29,30.31,24.86,95.08-37.62,170.61"/><path class="cls-20" d="M264.57,115.76c11.28,30.3,26.57,99.33-35.91,174.86"/><path id="butt-shadow-2" data-name="butt-shadow" class="cls-21" d="M212.16,239a27.39,27.39,0,0,0-1,7.94c0,24,27.1,43.4,60.52,43.4,24.19,0,45.06-10.18,54.75-24.89-5.53,19.88-35,38.17-64.32,38.17-23.07,0-47.5-8.91-53.45-24.81C200.21,256.32,208.75,244.21,212.16,239Z"/><path class="cls-18" d="M211.61,239.86c-18.42,29.66,19.36,56.32,53.38,58,24.16,1.18,51.32-14.88,61-29.59-5.53,19.88-35,38.17-64.32,38.17-23.07,0-42.43-6.56-54.49-28.66C198.86,262.49,204.91,241.13,211.61,239.86Z"/><path class="cls-18" d="M218.78,233c-5.77,2.86-10.47,7.33-12.54,13.54-1.73,5.18-1.52,10.76-1.06,16.12.24,2.71.56,5.43.63,8.15a1,1,0,0,0,2,0c-.24-9.81-3.24-20.65,3.23-29.23a24.05,24.05,0,0,1,8.75-6.86c1.16-.57.14-2.29-1-1.72Z"/><path class="cls-22" d="M225,236.67a12.76,12.76,0,0,0-7.8,7.6,1,1,0,0,1-2-.4v-.2a15.41,15.41,0,0,1,9.2-9,1,1,0,0,1,1.2.7h0a1,1,0,0,1-.6,1.3Z"/><path class="cls-22" d="M214,250.47a1,1,0,1,1,1-1A1,1,0,0,1,214,250.47Z"/><line class="cls-19" x1="245.56" y1="164.17" x2="254.96" y2="155.77"/><line class="cls-19" x1="289.66" y1="170.77" x2="297.16" y2="166.47"/><line class="cls-19" x1="290.96" y1="203.57" x2="295.86" y2="213.27"/><line class="cls-19" x1="264.36" y1="270.67" x2="269.56" y2="277.77"/><line class="cls-19" x1="276.76" y1="251.97" x2="288.76" y2="247.67"/><line class="cls-19" x1="315.76" y1="194.27" x2="327.46" y2="187.57"/><line class="cls-19" x1="318.16" y1="155.87" x2="320.66" y2="137.15"/><line class="cls-19" x1="314.41" y1="259.47" x2="324.7" y2="270.52"/><line class="cls-19" x1="327.06" y1="228.77" x2="344.35" y2="228.77"/><line class="cls-19" x1="241.64" y1="114.65" x2="245.46" y2="127.77"/><line class="cls-19" x1="250.26" y1="198.87" x2="250.26" y2="219.77"/><line class="cls-19" x1="286.96" y1="127.17" x2="278.56" y2="141.47"/><line class="cls-19" x1="222.76" y1="172.97" x2="224.66" y2="184.87"/></g><g id="needle-crack"><path class="cls-23" d="M206.85,129.2c-.1,17.31,0,41.57,0,41.57v55.31"/></g></svg>
